<?xml version="1.0" encoding="utf-8"?>
<svg width="100px" height="100px" viewBox="0 0 100 100" version="1.1" xmlns:xlink="http://www.w3.org/1999/xlink" xmlns="http://www.w3.org/2000/svg">
  <defs>
    <rect width="100" height="100" id="artboard_1" />
    <clipPath id="clip_1">
      <use xlink:href="#artboard_1" clip-rule="evenodd" />
    </clipPath>
  </defs>
  <g id="画板-3" clip-path="url(#clip_1)">
    
    <g id="矢量图" transform="translate(7.9960136 17.47992)" artboard="ef1d0300-254b-4d73-8457-dcd46512ccbc">
      <path d="M84.1917 53.4349C83.119 55.7704 81.3044 58.0322 78.7478 60.22C73.7727 64.4777 67.5839 66.6065 60.1813 66.6065C54.1826 66.6065 47.4318 63.9385 39.9288 58.6025C38.575 57.6397 37.2662 56.7834 36.0026 56.0336C31.5698 53.4036 27.6917 52.0842 24.368 52.0754C16.9125 52.0558 11.673 54.2385 8.64935 58.6236C8.19937 59.2762 7.79847 59.9776 7.44666 60.7277L7.44627 60.7286C6.9889 61.7039 6.25371 62.3748 5.24068 62.7412C4.22765 63.1075 3.2334 63.0622 2.25796 62.605C1.28234 62.1478 0.611243 61.4126 0.244672 60.3995C-0.121899 59.3863 -0.0765728 58.392 0.380631 57.4163L0.381028 57.4155C1.47565 55.0812 3.3035 52.8217 5.86457 50.637C10.8617 46.3743 17.0364 44.2526 24.3886 44.272C30.3134 44.2876 37.001 46.9447 44.4514 52.2433C45.8301 53.2237 47.1632 54.0943 48.4507 54.8549C52.9061 57.487 56.8163 58.8031 60.1813 58.8031C67.7096 58.8031 72.9603 56.6196 75.9335 52.2527C76.3719 51.6086 76.7609 50.9171 77.1003 50.1781C77.3162 49.7079 77.6139 49.2969 77.9933 48.9452C78.3728 48.5934 78.805 48.3276 79.2902 48.1479C79.7754 47.9681 80.2765 47.888 80.7935 47.9075C81.3105 47.9271 81.8042 48.0449 82.2744 48.2608C83.2535 48.7105 83.9302 49.4404 84.3046 50.4507C84.679 51.461 84.6413 52.4557 84.1917 53.4349L84.1917 53.4349Z" id="矢量图" fill="#8F8F8F" fill-rule="evenodd" stroke="none" />
      <path d="M0.0436297 60.3098C0.994147 52.9005 3.08268 44.9991 6.30922 36.6056C12.9198 19.409 22.2185 8.08402 34.2054 2.6306C42.276 -1.04111 50.1451 -0.869146 57.8127 3.14649C61.5622 5.11016 64.5505 7.47338 66.7778 10.2362C67.4158 11.0276 67.7009 11.9304 67.6333 12.9447C67.5656 13.959 67.163 14.816 66.4255 15.5156L51.7433 29.4436C51.7308 29.4554 51.7183 29.4672 51.7056 29.4789C51.693 29.4905 51.6802 29.5021 51.6674 29.5137C49.7114 31.2732 46.0206 31.2089 40.595 29.3208C41.092 35.4296 40.3158 39.3081 38.2666 40.9564C28.1863 49.0645 17.4369 56.7763 6.01843 64.0916C5.11121 64.6728 4.13136 64.8482 3.07888 64.6177C2.02639 64.3872 1.20954 63.8183 0.62832 62.9111C0.381177 62.5253 0.207363 62.1089 0.106896 61.6619C0.00642985 61.215 -0.0146656 60.7642 0.0436297 60.3098L0.0436297 60.3098ZM33.3757 34.8759C25.7876 40.9794 17.8086 46.8554 9.43876 52.5041C10.4636 48.3103 11.8484 43.9441 13.5931 39.4056C19.4397 24.1961 27.3877 14.3054 37.4369 9.73353C43.1925 7.11499 48.7777 7.22358 54.1923 10.0593C55.6902 10.8438 57.0091 11.6943 58.1491 12.6108L46.4451 23.7136C46.3112 23.7388 43.3312 22.3576 37.5051 19.57C37.0384 19.3467 36.5467 19.2212 36.0301 19.1935C35.5134 19.1658 35.0111 19.238 34.5232 19.4101C34.0352 19.5822 33.5988 19.8411 33.2139 20.1869C32.8289 20.5326 32.5248 20.9389 32.3015 21.4056C32.1255 21.7736 32.01 22.1597 31.955 22.5639C31.9 22.9681 31.9082 23.371 31.9797 23.7726C33.2475 30.9036 33.7129 34.6046 33.3757 34.8759L33.3757 34.8759Z" id="矢量图" fill="#8F8F8F" fill-rule="evenodd" stroke="none" />
    </g>
  </g>
</svg>