<?xml version="1.0" encoding="utf-8"?>
<svg width="100px" height="100px" viewBox="0 0 100 100" version="1.1" xmlns:xlink="http://www.w3.org/1999/xlink" xmlns="http://www.w3.org/2000/svg">
  <defs>
    <rect width="100" height="100" id="artboard_1" />
    <clipPath id="clip_1">
      <use xlink:href="#artboard_1" clip-rule="evenodd" />
    </clipPath>
  </defs>
  <g id="画板" clip-path="url(#clip_1)">
    
    <path d="M41.7859 30.7639C40.1262 29.8354 38.4787 29.0983 36.8434 28.5525C30.0365 26.2806 23.4411 27.3233 17.0569 31.6807C16.5448 32.0316 16.0626 32.4027 15.6102 32.7939C14.4475 33.7995 13.482 34.9385 12.7138 36.2108C12.1249 37.1862 11.2774 37.8105 10.1712 38.0838C9.06503 38.3571 8.02424 38.1993 7.04882 37.6104C6.0734 37.0214 5.44905 36.1739 5.17576 35.0677C4.90247 33.9616 5.06029 32.9208 5.64922 31.9453C7.33259 29.1573 9.5844 26.797 12.4047 24.8646C23.1366 17.5397 34.2733 17.1054 45.8148 23.5618C46.2923 23.8289 46.7006 24.1772 47.0395 24.6068C47.3785 25.0363 47.6223 25.5144 47.7711 26.0409C47.9199 26.5675 47.9622 27.1025 47.8982 27.6459C47.8341 28.1893 47.6685 28.6997 47.4014 29.1773C46.8451 30.1717 46.0187 30.8238 44.9222 31.1336C43.8257 31.4434 42.7803 31.3202 41.7859 30.7639L41.7859 30.7639ZM93.9173 28.7807C87.4289 40.8059 77.4229 44.6799 63.8993 40.4026C60.6344 39.3687 57.7233 37.6985 55.166 35.3919C54.3199 34.6287 53.8675 33.6782 53.8088 32.5403C53.7502 31.4024 54.1024 30.4104 54.8656 29.5643C55.2321 29.158 55.6623 28.8372 56.1564 28.6021C56.6505 28.367 57.1707 28.2353 57.7172 28.2071C58.2636 28.179 58.7947 28.2564 59.3103 28.4395C59.8259 28.6226 60.2869 28.8974 60.6932 29.2639C61.6046 30.0859 62.5835 30.7839 63.63 31.3578C64.5023 31.8362 65.4217 32.2284 66.3879 32.5343C74.3595 35.0556 80.5015 33.4617 84.8139 27.7526C85.4698 26.8842 86.0834 25.9207 86.6547 24.862C87.1957 23.8592 88.0121 23.1946 89.1037 22.8681C90.1954 22.5416 91.2426 22.6489 92.2454 23.19C92.7269 23.4498 93.1404 23.7919 93.4859 24.2162C93.8313 24.6405 94.0824 25.1148 94.2392 25.639C94.396 26.1633 94.4465 26.6975 94.3907 27.2419C94.335 27.7862 94.1772 28.2991 93.9173 28.7807L93.9173 28.7807ZM94.0357 48.606C92.9013 51.076 90.9823 53.4679 88.2787 55.7816C83.0173 60.2842 76.4723 62.5356 68.6439 62.5356C62.3001 62.5356 55.1608 59.714 47.2262 54.071C45.7945 53.0528 44.4104 52.1472 43.074 51.3543C38.3863 48.5729 34.2849 47.1776 30.7701 47.1684C22.8836 47.1476 17.3423 49.456 14.1462 54.0934C13.6706 54.7835 13.2469 55.5252 12.8751 56.3185C12.6429 56.814 12.3248 57.2461 11.9207 57.615C11.5165 57.9839 11.0572 58.2614 10.5427 58.4476C10.0282 58.6338 9.49759 58.7144 8.95099 58.6895C8.40438 58.6646 7.88335 58.536 7.38789 58.3038C6.35614 57.8203 5.64644 57.0428 5.25878 55.9714C4.87111 54.8999 4.91904 53.8483 5.40255 52.8166C6.55863 50.3497 8.49068 47.9608 11.1987 45.6501C16.4838 41.1402 23.0148 38.8955 30.7918 38.916C37.0576 38.9325 44.1299 41.7424 52.009 47.3459C53.4669 48.3828 54.8767 49.3034 56.2384 50.1078C60.9501 52.8914 65.0853 54.2831 68.6439 54.2831C76.6053 54.2831 82.1582 51.974 85.3024 47.3559C85.7661 46.6748 86.1774 45.9434 86.5363 45.1619C86.7647 44.6646 87.0795 44.23 87.4807 43.858C87.882 43.486 88.3392 43.205 88.8523 43.0148C89.3653 42.8247 89.8953 42.74 90.442 42.7607C90.9888 42.7814 91.5108 42.9059 92.0081 43.1343C93.0435 43.6098 93.7592 44.3818 94.1551 45.4502C94.551 46.5187 94.5112 47.5706 94.0357 48.606L94.0357 48.606ZM43.0052 69.9605C42.0272 69.2343 41.0117 68.6167 39.9587 68.1075C37.2021 66.7747 34.1883 66.1858 30.9175 66.3407C26.3749 66.5559 22.46 68.1593 19.1728 71.1508C18.1238 72.1027 17.192 73.1721 16.3775 74.359C15.7086 75.3337 15.1189 76.3876 14.6081 77.5208C14.1399 78.5596 13.373 79.2808 12.3074 79.6842C11.2418 80.0877 10.1897 80.0554 9.15087 79.5872C8.65202 79.3623 8.21518 79.0506 7.84035 78.652C7.46552 78.2534 7.18122 77.7982 6.98746 77.2865C6.79371 76.7748 6.70524 76.2455 6.72206 75.6986C6.73887 75.1516 6.8597 74.6288 7.08453 74.1299C8.6878 70.5727 10.8658 67.5452 13.6184 65.0474C18.3702 60.723 24.0064 58.4064 30.527 58.0975C37.0099 57.7904 42.8093 59.5362 47.9251 63.335C48.8399 64.0143 49.3805 64.9175 49.547 66.0447C49.7136 67.1719 49.4572 68.1929 48.7779 69.1077C48.4517 69.547 48.0538 69.9072 47.5843 70.1882C47.1149 70.4692 46.6095 70.6497 46.0682 70.7297C45.5269 70.8097 44.9909 70.783 44.4602 70.6497C43.9295 70.5165 43.4445 70.2867 43.0052 69.9605L43.0052 69.9605ZM95.4203 70.3751C89.5445 79.5036 80.022 83.3857 66.8527 82.0213C63.8192 81.7278 60.8851 81.0091 58.0503 79.8653C56.9937 79.4389 56.2425 78.7014 55.7969 77.6528C55.3512 76.6041 55.3415 75.5515 55.7679 74.4948C56.1943 73.4382 56.9318 72.687 57.9804 72.2414C59.0291 71.7957 60.0817 71.786 61.1384 72.2124C63.2357 73.0587 65.424 73.5922 67.7031 73.8128C67.9476 73.8382 68.1904 73.8612 68.4315 73.882C75.5161 74.4934 81.0523 73.1422 85.0402 69.8285C86.3557 68.7354 87.5027 67.4287 88.4812 65.9086C89.0979 64.9504 89.963 64.3507 91.0766 64.1093C92.1901 63.8679 93.226 64.0555 94.1841 64.6723C94.6441 64.9684 95.0301 65.3413 95.3418 65.791C95.6535 66.2407 95.8674 66.7329 95.9833 67.2676C96.0992 67.8024 96.1084 68.339 96.0109 68.8774C95.9133 69.4158 95.7165 69.9151 95.4203 70.3751L95.4203 70.3751Z" id="矢量图" fill="#8F8F8F" fill-rule="evenodd" stroke="none" artboard="1b7e4992-7d44-4785-b8ae-1169e50ce1b5" />
  </g>
</svg>