<?xml version="1.0" encoding="utf-8"?>
<svg width="100px" height="100px" viewBox="0 0 100 100" version="1.1" xmlns:xlink="http://www.w3.org/1999/xlink" xmlns="http://www.w3.org/2000/svg">
  <defs>
    <rect width="100" height="100" id="artboard_1" />
    <clipPath id="clip_1">
      <use xlink:href="#artboard_1" clip-rule="evenodd" />
    </clipPath>
  </defs>
  <g id="画板-9" clip-path="url(#clip_1)">
    
    <path d="M50.5 6C37.755 6 27.4231 16.3319 27.4231 29.0769C27.4231 41.822 37.755 52.1538 50.5 52.1538C63.245 52.1538 73.5769 41.822 73.5769 29.0769C73.5769 16.3319 63.245 6 50.5 6L50.5 6ZM40.3013 39.2756C37.4851 36.4593 36.0769 33.0597 36.0769 29.0769C36.0769 25.0941 37.4851 21.6945 40.3013 18.8783C43.1176 16.062 46.5172 14.6538 50.5 14.6538C54.4828 14.6538 57.8824 16.062 60.6987 18.8783C63.5149 21.6945 64.9231 25.0941 64.9231 29.0769C64.9231 33.0597 63.5149 36.4593 60.6987 39.2756C57.8824 42.0918 54.4828 43.5 50.5 43.5C46.5172 43.5 43.1176 42.0918 40.3013 39.2756L40.3013 39.2756Z" id="矢量图" fill="#8F8F8F" fill-rule="evenodd" stroke="none" artboard="a2ca55db-6699-4f86-9ae7-1d64979bd24e" />
    <path d="M69.2529 57.9231L31.7471 57.9231C26.5702 57.9231 22.1515 59.7534 18.4909 63.414C14.8303 67.0746 13 71.4933 13 76.6702L13 76.676C13 81.8529 14.8303 86.2716 18.4909 89.9322C22.1515 93.5928 26.5702 95.4231 31.7471 95.4231L69.2529 95.4231C74.4297 95.4231 78.8485 93.5928 82.5091 89.9322C86.1697 86.2716 88 81.8529 88 76.676L88 76.6702C88 71.4933 86.1697 67.0746 82.5091 63.414C78.8485 59.7534 74.4297 57.9231 69.2529 57.9231L69.2529 57.9231ZM21.6538 76.6702C21.6538 69.9413 25.0183 66.5769 31.7471 66.5769L69.2529 66.5769C75.9817 66.5769 79.3462 69.9413 79.3462 76.6702L79.3462 76.676C79.3462 83.4048 75.9817 86.7692 69.2529 86.7692L31.7471 86.7692C25.0183 86.7692 21.6538 83.4048 21.6538 76.676L21.6538 76.6702L21.6538 76.6702Z" id="矢量图" fill="#8F8F8F" fill-rule="evenodd" stroke="none" artboard="1d8be7de-0171-41f4-bb46-87e1148799eb" />
  </g>
</svg>