<?xml version="1.0" encoding="utf-8"?>
<svg width="100px" height="100px" viewBox="0 0 100 100" version="1.1" xmlns:xlink="http://www.w3.org/1999/xlink" xmlns="http://www.w3.org/2000/svg">
  <defs>
    <rect width="100" height="100" id="artboard_1" />
    <clipPath id="clip_1">
      <use xlink:href="#artboard_1" clip-rule="evenodd" />
    </clipPath>
  </defs>
  <g id="画板-10" clip-path="url(#clip_1)">
    
    <path d="M30.999 64L71.001 64Q71.2956 64 71.5898 64.0145Q71.884 64.0289 72.1771 64.0578Q72.4703 64.0866 72.7616 64.1299Q73.053 64.1731 73.3419 64.2306Q73.6308 64.288 73.9165 64.3596Q74.2022 64.4312 74.4841 64.5167Q74.766 64.6022 75.0433 64.7014Q75.3207 64.8006 75.5928 64.9134Q75.8649 65.0261 76.1312 65.152Q76.3975 65.278 76.6573 65.4168Q76.9171 65.5557 77.1697 65.7071Q77.4224 65.8585 77.6673 66.0222Q77.9122 66.1858 78.1488 66.3613Q78.3854 66.5368 78.6131 66.7237Q78.8408 66.9105 79.059 67.1083Q79.2773 67.3061 79.4856 67.5144Q79.6939 67.7227 79.8917 67.941Q80.0895 68.1592 80.2764 68.3869Q80.4632 68.6146 80.6387 68.8512Q80.8142 69.0878 80.9778 69.3327Q81.1414 69.5776 81.2929 69.8303Q81.4443 70.0829 81.5832 70.3427Q81.722 70.6025 81.848 70.8688Q81.9739 71.135 82.0866 71.4072Q82.1993 71.6793 82.2986 71.9566Q82.3978 72.234 82.4833 72.5159Q82.5688 72.7977 82.6404 73.0835Q82.712 73.3692 82.7694 73.6581Q82.8269 73.947 82.8701 74.2384Q82.9134 74.5297 82.9422 74.8229Q82.9711 75.116 82.9855 75.4102Q83 75.7044 83 75.999L83 77.001Q83 77.2956 82.9855 77.5898Q82.9711 77.884 82.9422 78.1771Q82.9134 78.4702 82.8701 78.7616Q82.8269 79.053 82.7694 79.3419Q82.712 79.6308 82.6404 79.9165Q82.5688 80.2022 82.4833 80.4841Q82.3978 80.766 82.2986 81.0433Q82.1993 81.3207 82.0866 81.5928Q81.9739 81.8649 81.848 82.1312Q81.722 82.3975 81.5832 82.6573Q81.4443 82.9171 81.2929 83.1697Q81.1414 83.4224 80.9778 83.6673Q80.8142 83.9122 80.6387 84.1488Q80.4632 84.3854 80.2764 84.6131Q80.0895 84.8408 79.8917 85.059Q79.6939 85.2773 79.4856 85.4856Q79.2773 85.6938 79.059 85.8917Q78.8408 86.0895 78.6131 86.2763Q78.3854 86.4632 78.1488 86.6387Q77.9122 86.8141 77.6673 86.9778Q77.4224 87.1414 77.1697 87.2929Q76.9171 87.4443 76.6573 87.5832Q76.3975 87.722 76.1312 87.8479Q75.865 87.9739 75.5928 88.0866Q75.3207 88.1993 75.0433 88.2986Q74.766 88.3978 74.4841 88.4833Q74.2022 88.5688 73.9165 88.6404Q73.6308 88.712 73.3419 88.7694Q73.053 88.8269 72.7616 88.8701Q72.4703 88.9134 72.1771 88.9422Q71.884 88.9711 71.5898 88.9855Q71.2956 89 71.001 89L30.999 89Q30.7044 89 30.4102 88.9855Q30.116 88.9711 29.8229 88.9422Q29.5298 88.9134 29.2384 88.8701Q28.947 88.8269 28.6581 88.7694Q28.3692 88.712 28.0835 88.6404Q27.7977 88.5688 27.5159 88.4833Q27.234 88.3978 26.9567 88.2986Q26.6793 88.1993 26.4072 88.0866Q26.135 87.9739 25.8688 87.8479Q25.6025 87.722 25.3427 87.5832Q25.0829 87.4443 24.8303 87.2929Q24.5776 87.1414 24.3327 86.9778Q24.0878 86.8141 23.8512 86.6387Q23.6146 86.4632 23.3869 86.2763Q23.1592 86.0895 22.941 85.8917Q22.7227 85.6938 22.5144 85.4856Q22.3061 85.2773 22.1083 85.059Q21.9105 84.8408 21.7236 84.6131Q21.5368 84.3854 21.3613 84.1488Q21.1858 83.9122 21.0222 83.6673Q20.8585 83.4224 20.7071 83.1697Q20.5557 82.9171 20.4168 82.6573Q20.278 82.3975 20.152 82.1312Q20.0261 81.8649 19.9134 81.5928Q19.8006 81.3207 19.7014 81.0433Q19.6022 80.766 19.5167 80.4841Q19.4312 80.2022 19.3596 79.9165Q19.288 79.6308 19.2306 79.3419Q19.1731 79.053 19.1299 78.7616Q19.0867 78.4702 19.0578 78.1771Q19.0289 77.884 19.0145 77.5898Q19 77.2956 19 77.001L19 75.999Q19 75.7044 19.0145 75.4102Q19.0289 75.116 19.0578 74.8229Q19.0867 74.5297 19.1299 74.2384Q19.1731 73.947 19.2306 73.6581Q19.288 73.3692 19.3596 73.0835Q19.4312 72.7977 19.5167 72.5159Q19.6022 72.234 19.7014 71.9566Q19.8006 71.6793 19.9134 71.4072Q20.0261 71.135 20.152 70.8688Q20.278 70.6025 20.4168 70.3427Q20.5557 70.0829 20.7071 69.8303Q20.8585 69.5776 21.0222 69.3327Q21.1858 69.0878 21.3613 68.8512Q21.5368 68.6146 21.7236 68.3869Q21.9105 68.1592 22.1083 67.941Q22.3061 67.7227 22.5144 67.5144Q22.7227 67.3061 22.941 67.1083Q23.1592 66.9105 23.3869 66.7236Q23.6146 66.5368 23.8512 66.3613Q24.0878 66.1858 24.3327 66.0222Q24.5776 65.8585 24.8303 65.7071Q25.0829 65.5557 25.3427 65.4168Q25.6025 65.278 25.8688 65.152Q26.135 65.0261 26.4072 64.9134Q26.6793 64.8006 26.9567 64.7014Q27.234 64.6022 27.5159 64.5167Q27.7977 64.4312 28.0835 64.3596Q28.3692 64.288 28.6581 64.2306Q28.947 64.1731 29.2384 64.1299Q29.5298 64.0866 29.8229 64.0578Q30.116 64.0289 30.4102 64.0145Q30.7044 64 30.999 64Z" id="矩形-2" fill="#B2ECFF" fill-rule="evenodd" stroke="none" artboard="d4e80ca5-3b80-4b47-b3d9-7817cb20d55f" />
    <path d="M51.0769 6C38.3319 6 28 16.3319 28 29.0769C28 41.822 38.3319 52.1538 51.0769 52.1538C63.822 52.1538 74.1538 41.822 74.1538 29.0769C74.1538 16.3319 63.822 6 51.0769 6L51.0769 6ZM40.8783 39.2756C38.062 36.4593 36.6538 33.0597 36.6538 29.0769C36.6538 25.0941 38.062 21.6945 40.8783 18.8783C43.6945 16.062 47.0941 14.6538 51.0769 14.6538C55.0597 14.6538 58.4593 16.062 61.2756 18.8783C64.0919 21.6945 65.5 25.0941 65.5 29.0769C65.5 33.0597 64.0919 36.4593 61.2756 39.2756C58.4593 42.0918 55.0597 43.5 51.0769 43.5C47.0941 43.5 43.6945 42.0918 40.8783 39.2756L40.8783 39.2756Z" id="矢量图-2" fill="#00BEEE" fill-rule="evenodd" stroke="none" artboard="4de5ecca-4503-4368-ba8e-8012d931f737" />
    <path d="M69.2529 58L31.7471 58C26.5702 58 22.1515 59.8303 18.4909 63.4909C14.8303 67.1515 13 71.5702 13 76.7471L13 76.7529C13 81.9298 14.8303 86.3485 18.4909 90.0091C22.1515 93.6697 26.5702 95.5 31.7471 95.5L69.2529 95.5C74.4297 95.5 78.8485 93.6697 82.5091 90.0091C86.1697 86.3485 88 81.9298 88 76.7529L88 76.7471C88 71.5702 86.1697 67.1515 82.5091 63.4909C78.8485 59.8303 74.4297 58 69.2529 58L69.2529 58ZM21.6538 76.7471C21.6538 70.0182 25.0183 66.6538 31.7471 66.6538L69.2529 66.6538C75.9817 66.6538 79.3462 70.0182 79.3462 76.7471L79.3462 76.7529C79.3462 83.4817 75.9817 86.8461 69.2529 86.8461L31.7471 86.8461C25.0183 86.8461 21.6538 83.4817 21.6538 76.7529L21.6538 76.7471L21.6538 76.7471Z" id="矢量图-3" fill="#00BEEE" fill-rule="evenodd" stroke="none" artboard="02cd06c7-58c6-420a-a5be-e66ff7cb1c9c" />
    <path d="M36.7 29.1C36.7 21.1471 43.1471 14.7 51.1 14.7C59.0529 14.7 65.5 21.1471 65.5 29.1C65.5 37.0529 59.0529 43.5 51.1 43.5C43.1471 43.5 36.7 37.0529 36.7 29.1Z" id="椭圆" fill="#B2ECFF" fill-rule="evenodd" stroke="none" artboard="f557aed9-8bed-4d8c-86e6-09300447c76b" />
  </g>
</svg>