<?xml version="1.0" encoding="utf-8"?>
<svg width="100px" height="100px" viewBox="0 0 100 100" version="1.1" xmlns:xlink="http://www.w3.org/1999/xlink" xmlns="http://www.w3.org/2000/svg">
  <defs>
    <rect width="100" height="100" id="artboard_1" />
    <clipPath id="clip_1">
      <use xlink:href="#artboard_1" clip-rule="evenodd" />
    </clipPath>
  </defs>
  <g id="画板-7" clip-path="url(#clip_1)">
    
    <path d="M50.9894 69.0945L76.8879 90.5367C77.8073 91.2979 78.8592 91.7535 80.0434 91.9035C81.2276 92.0534 82.3598 91.8744 83.4399 91.3663C84.5201 90.8583 85.3801 90.1004 86.0198 89.0926C86.6595 88.0848 86.9793 86.9841 86.9793 85.7904L86.9793 15.6619C86.9793 13.9603 86.3777 12.5079 85.1746 11.3048C83.9714 10.1016 82.519 9.5 80.8175 9.5L19.1619 9.5C17.4603 9.5 16.0079 10.1016 14.8048 11.3048C13.6016 12.5079 13 13.9603 13 15.6619L13 86.2274C13 87.4064 13.3126 88.4956 13.9379 89.4952C14.5631 90.4947 15.4058 91.2524 16.466 91.7682C17.5261 92.284 18.6424 92.4795 19.8147 92.3546C20.9871 92.2297 22.0371 91.8034 22.9647 91.0758L50.9894 69.0945L50.9894 69.0945ZM22.2474 18.7474L22.2474 79.8858L45.2822 61.8182C46.9936 60.4759 48.9367 59.8191 51.1115 59.8478C53.2863 59.8766 55.2114 60.5844 56.8867 61.9715L77.7319 79.2299L77.7319 18.7474L22.2474 18.7474L22.2474 18.7474Z" id="矢量图" fill="#8F8F8F" fill-rule="evenodd" stroke="none" artboard="6be54eb1-4e32-4a03-9825-7027f8e5616a" />
  </g>
</svg>