<?xml version="1.0" encoding="utf-8"?>
<svg width="100px" height="100px" viewBox="0 0 100 100" version="1.1" xmlns:xlink="http://www.w3.org/1999/xlink" xmlns="http://www.w3.org/2000/svg">
  <defs>
    <rect width="100" height="100" id="artboard_1" />
    <clipPath id="clip_1">
      <use xlink:href="#artboard_1" clip-rule="evenodd" />
    </clipPath>
  </defs>
  <g id="画板-8" clip-path="url(#clip_1)">
    
    <path d="M22.999 12.7083L78.001 12.7083Q78.0992 12.7083 78.1969 12.7179Q78.2947 12.7276 78.391 12.7467Q78.4873 12.7659 78.5813 12.7944Q78.6753 12.8229 78.766 12.8605Q78.8567 12.8981 78.9433 12.9444Q79.0299 12.9906 79.1116 13.0452Q79.1932 13.0998 79.2691 13.1621Q79.3451 13.2244 79.4145 13.2938Q79.4839 13.3632 79.5462 13.4392Q79.6085 13.5151 79.6631 13.5967Q79.7177 13.6784 79.764 13.765Q79.8102 13.8516 79.8478 13.9423Q79.8854 14.0331 79.9139 14.127Q79.9424 14.221 79.9616 14.3173Q79.9807 14.4136 79.9904 14.5114Q80 14.6091 80 14.7073L80 79.7497Q80 79.8204 79.995 79.8909Q79.99 79.9614 79.98 80.0314Q79.9701 80.1014 79.9552 80.1705Q79.9403 80.2396 79.9206 80.3075Q79.9009 80.3754 79.8764 80.4417Q79.8519 80.508 79.8228 80.5725Q79.7937 80.6369 79.7602 80.6991Q79.7266 80.7613 79.6887 80.821Q79.6508 80.8807 79.6088 80.9375Q79.5668 80.9944 79.5209 81.0481Q79.475 81.1019 79.4254 81.1523Q79.3758 81.2027 79.3227 81.2494Q79.2697 81.2961 79.2135 81.339Q79.1573 81.3819 79.0982 81.4207Q79.0391 81.4595 78.9774 81.494Q78.9157 81.5286 78.8518 81.5586Q78.7878 81.5887 78.7219 81.6142Q78.6559 81.6397 78.5884 81.6605Q78.5208 81.6813 78.4519 81.6972Q78.3831 81.7132 78.3132 81.7242Q78.2434 81.7352 78.173 81.7413Q78.1025 81.7474 78.0319 81.7485Q77.9612 81.7496 77.8906 81.7457Q77.82 81.7418 77.7499 81.7329Q77.6797 81.724 77.6104 81.7102Q77.5411 81.6964 77.4729 81.6777Q77.4047 81.659 77.338 81.6356Q77.2713 81.6121 77.2065 81.584Q77.1416 81.5559 77.0789 81.5233Q77.0162 81.4907 76.9559 81.4538Q76.8956 81.4168 76.8381 81.3757Q76.7806 81.3346 76.7262 81.2895L51.2973 60.2361L24.2327 81.4644Q24.1777 81.5075 24.1199 81.5467Q24.062 81.5859 24.0016 81.6209Q23.9411 81.6559 23.8784 81.6867Q23.8157 81.7174 23.7509 81.7437Q23.6862 81.77 23.6198 81.7917Q23.5534 81.8133 23.4856 81.8304Q23.4178 81.8474 23.3491 81.8596Q23.2803 81.8718 23.2108 81.8792Q23.1413 81.8866 23.0715 81.8892Q23.0017 81.8917 22.9319 81.8894Q22.862 81.887 22.7925 81.8798Q22.723 81.8726 22.6542 81.8605Q22.5854 81.8485 22.5176 81.8317Q22.4498 81.8148 22.3833 81.7933Q22.3168 81.7718 22.252 81.7457Q22.1872 81.7196 22.1244 81.689Q22.0616 81.6584 22.001 81.6236Q21.9405 81.5887 21.8826 81.5497Q21.8246 81.5106 21.7695 81.4677Q21.7144 81.4247 21.6625 81.378Q21.6105 81.3313 21.562 81.2811Q21.5134 81.2308 21.4684 81.1773Q21.4235 81.1238 21.3824 81.0673Q21.3413 81.0108 21.3043 80.9516Q21.2672 80.8924 21.2344 80.8307Q21.2016 80.769 21.1731 80.7052Q21.1447 80.6414 21.1208 80.5757Q21.0968 80.5101 21.0776 80.4429Q21.0583 80.3758 21.0438 80.3074Q21.0292 80.2391 21.0195 80.1699Q21.0098 80.1007 21.0049 80.031Q21 79.9614 21 79.8915L21 14.7073Q21 14.6091 21.0096 14.5114Q21.0193 14.4136 21.0384 14.3173Q21.0576 14.221 21.0861 14.127Q21.1146 14.0331 21.1522 13.9423Q21.1897 13.8516 21.236 13.765Q21.2823 13.6784 21.3369 13.5967Q21.3915 13.5151 21.4538 13.4392Q21.5161 13.3632 21.5855 13.2938Q21.6549 13.2244 21.7308 13.1621Q21.8068 13.0998 21.8884 13.0452Q21.9701 12.9906 22.0567 12.9444Q22.1433 12.8981 22.234 12.8605Q22.3247 12.8229 22.4187 12.7944Q22.5127 12.7659 22.609 12.7467Q22.7053 12.7276 22.8031 12.7179Q22.9008 12.7083 22.999 12.7083Z" id="矩形-31" fill="#B2ECFF" fill-rule="evenodd" stroke="none" artboard="d909f966-843c-49e7-8765-4302c4576baa" />
    <path d="M51 69.1111L76.9057 90.5593C77.8255 91.3207 78.8776 91.7765 80.0621 91.9265C81.2467 92.0765 82.3792 91.8974 83.4596 91.3892C84.5401 90.881 85.4003 90.1229 86.0402 89.1148C86.6801 88.1068 87 87.0057 87 85.8117L87 15.6636C87 13.9615 86.3982 12.5088 85.1947 11.3053C83.9912 10.1018 82.5384 9.5 80.8364 9.5L19.1636 9.5C17.4615 9.5 16.0088 10.1018 14.8053 11.3053C13.6017 12.5088 13 13.9615 13 15.6636L13 86.2488C13 87.4282 13.3127 88.5177 13.9381 89.5175C14.5635 90.5174 15.4065 91.2752 16.4669 91.7912C17.5274 92.3072 18.6439 92.5027 19.8166 92.3778C20.9893 92.2528 22.0396 91.8264 22.9675 91.0986L51 69.1111L51 69.1111ZM22.25 18.75L22.25 79.9054L45.2913 61.8329C47.0031 60.4902 48.9467 59.8332 51.1222 59.8619C53.2976 59.8906 55.2232 60.5987 56.899 61.9862L77.75 79.2494L77.75 18.75L22.25 18.75L22.25 18.75Z" id="矢量图" fill="#00BEEE" fill-rule="evenodd" stroke="none" artboard="5332957b-74d9-4ec3-a807-86c17fce32df" />
  </g>
</svg>