<?xml version="1.0" encoding="utf-8"?>
<svg width="30px" height="30px" viewBox="0 0 30 30" version="1.1" xmlns:xlink="http://www.w3.org/1999/xlink" xmlns="http://www.w3.org/2000/svg">
  <defs>
    <path d="M11.4761 5.70001L20.324 5.70001C22.278 5.70001 23.9458 6.55605 25.3275 8.26805C26.7091 9.9802 27.4 12.0469 27.4 14.4682L27.4 15.9319C27.4 18.3532 26.7091 20.4198 25.3275 22.1318C23.9458 23.8439 22.278 24.6999 20.324 24.7L4.40002 24.7L4.40002 14.4682C4.40002 12.0469 5.09086 9.9802 6.47253 8.26805C7.8542 6.55605 9.52204 5.70001 11.4761 5.70001L11.4761 5.70001Z" id="path_1" />
    <clipPath id="clip_1">
      <use xlink:href="#path_1" />
    </clipPath>
  </defs>
  <g id="Group">
    <g id="矢量图">
      <g clip-path="url(#clip_1)">
        <use xlink:href="#path_1" fill="none" stroke="#808080" stroke-width="5" />
      </g>
    </g>
    <path d="M0 0L30 0L30 30L0 30L0 0Z" id="Rectangle-2-Copy" fill="#D3D3D3" fill-opacity="0" fill-rule="evenodd" stroke="none" />
  </g>
</svg>