<?xml version="1.0" encoding="utf-8"?>
<svg width="30px" height="30px" viewBox="0 0 30 30" version="1.1" xmlns:xlink="http://www.w3.org/1999/xlink" xmlns="http://www.w3.org/2000/svg">
  <defs>
    <path d="M17.2033 4.46436L18.4779 7.04706Q18.5851 7.26429 18.7178 7.46699Q18.8504 7.66969 19.0066 7.8549Q19.1627 8.04011 19.3401 8.20511Q19.5174 8.37012 19.7134 8.51251Q19.9094 8.65489 20.1211 8.77258Q20.3329 8.89028 20.5573 8.98154Q20.7817 9.07282 21.0155 9.13633Q21.2492 9.19985 21.489 9.23468L24.3391 9.64886Q24.4237 9.66115 24.5072 9.67928Q24.5907 9.69741 24.6727 9.7213Q24.7547 9.74518 24.8349 9.77471Q24.9151 9.80424 24.993 9.83926Q25.0709 9.87429 25.1463 9.91464Q25.2216 9.955 25.2939 10.0005Q25.3662 10.046 25.4352 10.0964Q25.5042 10.1468 25.5695 10.2019Q25.6349 10.2569 25.6962 10.3164Q25.7575 10.3759 25.8146 10.4395Q25.8717 10.5031 25.9242 10.5705Q25.9767 10.6379 26.0244 10.7088Q26.0721 10.7797 26.1147 10.8537Q26.1574 10.9277 26.1948 11.0045Q26.2322 11.0814 26.2642 11.1606Q26.2962 11.2398 26.3226 11.3211Q26.349 11.4023 26.3697 11.4852Q26.3904 11.5681 26.4052 11.6523Q26.4201 11.7364 26.4291 11.8214Q26.4381 11.9063 26.4412 11.9917Q26.4443 12.0771 26.4414 12.1625Q26.4386 12.2479 26.4298 12.3329Q26.421 12.4179 26.4064 12.5021Q26.3917 12.5862 26.3712 12.6692Q26.3507 12.7521 26.3245 12.8335Q26.2984 12.9148 26.2666 12.9941Q26.2348 13.0734 26.1976 13.1503Q26.1604 13.2272 26.1179 13.3014Q26.0755 13.3755 26.0279 13.4465Q25.9804 13.5176 25.9281 13.5851Q25.8758 13.6527 25.8189 13.7164Q25.762 13.7801 25.7008 13.8398L23.6384 15.8501Q23.465 16.0192 23.3132 16.208Q23.1614 16.3968 23.0335 16.6025Q22.9056 16.8083 22.8035 17.0279Q22.7014 17.2476 22.6265 17.478Q22.5517 17.7084 22.5052 17.9461Q22.4587 18.1839 22.4412 18.4255Q22.4237 18.6671 22.4356 18.9091Q22.4474 19.151 22.4883 19.3898L22.9752 22.2284Q22.9897 22.3126 22.9982 22.3976Q23.0068 22.4826 23.0094 22.568Q23.012 22.6534 23.0087 22.7388Q23.0054 22.8242 22.9962 22.9091Q22.987 22.9941 22.9719 23.0782Q22.9568 23.1623 22.9358 23.2451Q22.9149 23.328 22.8883 23.4091Q22.8617 23.4903 22.8295 23.5695Q22.7973 23.6486 22.7597 23.7254Q22.7221 23.8021 22.6792 23.876Q22.6364 23.9499 22.5885 24.0207Q22.5406 24.0914 22.4879 24.1587Q22.4353 24.226 22.378 24.2894Q22.3208 24.3529 22.2593 24.4122Q22.1978 24.4715 22.1323 24.5264Q22.0669 24.5813 21.9978 24.6315Q21.9286 24.6818 21.8562 24.7271Q21.7837 24.7724 21.7083 24.8125Q21.6329 24.8527 21.5549 24.8875Q21.4769 24.9223 21.3966 24.9516Q21.3163 24.9809 21.2342 25.0046Q21.1522 25.0283 21.0686 25.0462Q20.9851 25.0641 20.9005 25.0762Q20.8159 25.0882 20.7307 25.0944Q20.6455 25.1005 20.56 25.1008Q20.4746 25.101 20.3893 25.0953Q20.3041 25.0896 20.2194 25.078Q20.1348 25.0663 20.0511 25.0489Q19.9675 25.0314 19.8853 25.0082Q19.8031 24.9849 19.7227 24.956Q19.6423 24.9271 19.5641 24.8927Q19.4858 24.8583 19.4102 24.8185L16.8609 23.4783Q16.6465 23.3656 16.42 23.2796Q16.1936 23.1936 15.9584 23.1355Q15.7232 23.0775 15.4827 23.0482Q15.2422 23.019 15 23.019Q14.7578 23.019 14.5173 23.0482Q14.2768 23.0775 14.0416 23.1355Q13.8064 23.1936 13.58 23.2796Q13.3535 23.3656 13.1391 23.4783L10.5898 24.8186Q10.5142 24.8584 10.436 24.8928Q10.3578 24.9272 10.2774 24.9561Q10.197 24.985 10.1148 25.0082Q10.0326 25.0314 9.94891 25.0489Q9.86528 25.0664 9.78063 25.078Q9.69598 25.0896 9.61073 25.0953Q9.52548 25.101 9.44004 25.1008Q9.3546 25.1006 9.26938 25.0944Q9.18416 25.0883 9.09958 25.0762Q9.01499 25.0641 8.93145 25.0462Q8.84791 25.0283 8.76581 25.0047Q8.68371 24.981 8.60346 24.9517Q8.5232 24.9223 8.44518 24.8875Q8.36716 24.8527 8.29174 24.8125Q8.21632 24.7724 8.14388 24.7271Q8.07143 24.6818 8.00231 24.6316Q7.93318 24.5814 7.86772 24.5264Q7.80225 24.4715 7.74075 24.4122Q7.67925 24.3529 7.62203 24.2895Q7.5648 24.226 7.51212 24.1588Q7.45944 24.0915 7.41155 24.0207Q7.36367 23.95 7.32082 23.876Q7.27797 23.8021 7.24036 23.7254Q7.20275 23.6487 7.17055 23.5695Q7.13836 23.4904 7.11175 23.4092Q7.08513 23.328 7.06422 23.2452Q7.0433 23.1623 7.0282 23.0782Q7.01309 22.9941 7.00386 22.9092Q6.99463 22.8242 6.99132 22.7389Q6.98802 22.6535 6.99065 22.5681Q6.99328 22.4827 7.00184 22.3977Q7.0104 22.3127 7.02484 22.2285L7.51172 19.3898Q7.55266 19.151 7.56449 18.9091Q7.57631 18.6671 7.55885 18.4255Q7.54138 18.1839 7.49487 17.9461Q7.44837 17.7084 7.37351 17.478Q7.29865 17.2476 7.19653 17.028Q7.0944 16.8083 6.96651 16.6026Q6.83862 16.3968 6.68683 16.208Q6.53504 16.0192 6.36157 15.8502L4.29913 13.8398Q4.23795 13.7802 4.18106 13.7165Q4.12416 13.6527 4.07184 13.5852Q4.01951 13.5176 3.972 13.4466Q3.92449 13.3756 3.88203 13.3014Q3.83957 13.2273 3.80236 13.1504Q3.76515 13.0735 3.73338 12.9942Q3.7016 12.9148 3.67541 12.8335Q3.64922 12.7522 3.62874 12.6692Q3.60827 12.5863 3.5936 12.5021Q3.57894 12.4179 3.57016 12.3329Q3.56137 12.248 3.55852 12.1626Q3.55566 12.0772 3.55874 11.9918Q3.56182 11.9064 3.57083 11.8214Q3.57983 11.7365 3.59472 11.6523Q3.6096 11.5682 3.6303 11.4853Q3.65099 11.4024 3.67739 11.3211Q3.7038 11.2399 3.73578 11.1606Q3.76776 11.0814 3.80517 11.0046Q3.84258 10.9278 3.88524 10.8537Q3.9279 10.7797 3.97559 10.7088Q4.02329 10.6379 4.07579 10.5705Q4.12829 10.5031 4.18535 10.4395Q4.24241 10.3759 4.30375 10.3164Q4.36509 10.2569 4.43042 10.2019Q4.49574 10.1468 4.56473 10.0964Q4.63372 10.046 4.70605 10.0005Q4.77837 9.95501 4.85368 9.91465Q4.929 9.8743 5.00693 9.83927Q5.08486 9.80425 5.16504 9.77472Q5.24521 9.74519 5.32725 9.7213Q5.40928 9.69741 5.49278 9.67928Q5.57627 9.66115 5.66083 9.64886L8.51105 9.23474Q8.75077 9.1999 8.98454 9.13638Q9.2183 9.07286 9.44269 8.98158Q9.66708 8.89031 9.87882 8.77262Q10.0905 8.65493 10.2865 8.51254Q10.4825 8.37015 10.6599 8.20515Q10.8372 8.04014 10.9934 7.85494Q11.1495 7.66974 11.2822 7.46704Q11.4148 7.26434 11.522 7.04712L12.7967 4.46436Q12.8345 4.38774 12.8776 4.31393Q12.9206 4.24012 12.9687 4.16948Q13.0167 4.09885 13.0696 4.03172Q13.1224 3.96459 13.1798 3.90129Q13.2372 3.838 13.2989 3.77884Q13.3605 3.71969 13.4262 3.66496Q13.4918 3.61023 13.561 3.56019Q13.6303 3.51015 13.7028 3.46504Q13.7754 3.41994 13.8509 3.37998Q13.9265 3.34002 14.0046 3.3054Q14.0827 3.27079 14.163 3.24168Q14.2434 3.21258 14.3255 3.18912Q14.4077 3.16567 14.4913 3.14798Q14.5749 3.13029 14.6595 3.11844Q14.7441 3.1066 14.8293 3.10067Q14.9146 3.09473 15 3.09473Q15.0854 3.09473 15.1707 3.10067Q15.2559 3.1066 15.3405 3.11844Q15.4251 3.13029 15.5087 3.14798Q15.5923 3.16567 15.6745 3.18912Q15.7566 3.21258 15.837 3.24168Q15.9173 3.27079 15.9954 3.3054Q16.0735 3.34002 16.1491 3.37998Q16.2246 3.41994 16.2972 3.46504Q16.3697 3.51015 16.439 3.56019Q16.5082 3.61023 16.5738 3.66496Q16.6395 3.71969 16.7011 3.77884Q16.7628 3.838 16.8202 3.90129Q16.8776 3.96459 16.9304 4.03172Q16.9833 4.09885 17.0313 4.16948Q17.0794 4.24012 17.1224 4.31393Q17.1655 4.38774 17.2033 4.46436Z" id="path_1" />
    <clipPath id="clip_1">
      <use xlink:href="#path_1" />
    </clipPath>
  </defs>
  <path d="M0 0L30 0L30 30L0 30L0 0Z" id="Rectangle" fill="#D3D3D3" fill-opacity="0" fill-rule="evenodd" stroke="none" />
  <g id="星形">
    <g clip-path="url(#clip_1)">
      <use xlink:href="#path_1" fill="none" stroke="#808080" stroke-width="5" />
    </g>
  </g>
</svg>