<?xml version="1.0" encoding="utf-8"?>
<svg width="100px" height="100px" viewBox="0 0 100 100" version="1.1" xmlns:xlink="http://www.w3.org/1999/xlink" xmlns="http://www.w3.org/2000/svg">
  <defs>
    <rect width="100" height="100" id="artboard_1" />
    <clipPath id="clip_1">
      <use xlink:href="#artboard_1" clip-rule="evenodd" />
    </clipPath>
  </defs>
  <g id="画板-6" clip-path="url(#clip_1)">
    
    <path d="M32 50.6C32 40.3827 40.2827 32.1 50.5 32.1C60.7173 32.1 69 40.3827 69 50.6C69 60.8173 60.7173 69.1 50.5 69.1C40.2827 69.1 32 60.8173 32 50.6Z" id="椭圆" fill="#B2ECFF" fill-rule="evenodd" stroke="none" artboard="c50b69b6-2a11-4de1-ad28-74985bd47aac" />
    <path d="M3.07336 48.4976C5.02951 43.9343 8.45962 39.4295 13.3637 34.9831C23.0482 26.2025 35.2599 21.7104 49.9988 21.5067C64.7985 21.3023 77.0597 25.6902 86.7822 34.6704C91.6868 39.2006 95.1145 43.8272 97.0653 48.5503L97.7301 50.1597L97.0884 51.7786C95.1805 56.592 91.7892 61.3399 86.9145 66.0224C77.2394 75.316 64.9627 80.0081 50.0845 80.0987C35.1794 80.1894 22.8812 75.5436 13.1899 66.1612C8.31539 61.4421 4.92532 56.6407 3.01968 51.7572L2.37943 50.1164L3.07336 48.4976L3.07336 48.4976ZM80.943 40.9923C84.3225 44.1138 86.7964 47.1929 88.3646 50.2297C86.8121 53.3653 84.3415 56.5607 80.9528 59.8158C72.9283 67.5238 62.6214 71.4162 50.0321 71.4928C37.4695 71.5693 27.1842 67.7311 19.1759 59.978C15.7875 56.6977 13.3162 53.4649 11.762 50.2796C13.3282 47.3745 15.7889 44.4008 19.1442 41.3587C27.2224 34.0345 37.5469 30.2855 50.1177 30.1119C62.6276 29.939 72.9027 33.5658 80.943 40.9923L80.943 40.9923Z" id="矢量图" fill="#00BEEE" fill-rule="evenodd" stroke="none" artboard="7d50b5b3-9247-48f9-9c2f-f365f79ae606" />
    <path d="M50.0583 25.8032C37.3837 25.8032 27.1089 36.977 27.1089 50.7606C27.1089 64.5441 37.3837 75.7179 50.0583 75.7179C62.7328 75.7179 73.0076 64.5441 73.0076 50.7606C73.0076 36.977 62.7328 25.8032 50.0583 25.8032L50.0583 25.8032ZM40.1655 62.5829C37.1985 59.3562 35.7149 55.4154 35.7149 50.7606C35.7149 46.1057 37.1985 42.1649 40.1655 38.9382C42.9419 35.9189 46.2395 34.4092 50.0583 34.4092C53.877 34.4092 57.1746 35.9189 59.951 38.9382C62.918 42.1649 64.4016 46.1057 64.4016 50.7606C64.4016 55.4154 62.918 59.3562 59.951 62.5829C57.1746 65.6023 53.877 67.1119 50.0583 67.1119C46.2395 67.1119 42.9419 65.6023 40.1655 62.5829L40.1655 62.5829Z" id="矢量图" fill="#00BEEE" fill-rule="evenodd" stroke="none" artboard="748a267e-df77-4e97-b59b-4417d8de9336" />
  </g>
</svg>