<?xml version="1.0" encoding="utf-8"?>
<svg width="91.07773px" height="63.26277px" viewBox="0 0 91.07773 63.26277" version="1.1" xmlns:xlink="http://www.w3.org/1999/xlink" xmlns="http://www.w3.org/2000/svg">
  <path d="M36.7859 11.7392C35.1262 10.8108 33.4787 10.0737 31.8434 9.52784C25.0365 7.25589 18.441 8.29864 12.0569 12.6561C11.5448 13.0069 11.0626 13.378 10.6102 13.7692C9.44746 14.7749 8.48199 15.9138 7.71383 17.1861C7.12489 18.1615 6.27734 18.7859 5.17118 19.0592C4.06501 19.3325 3.02422 19.1746 2.0488 18.5857C1.07338 17.9968 0.449027 17.1492 0.175738 16.0431C-0.0975499 14.9369 0.0602722 13.8961 0.649204 12.9207C2.33257 10.1326 4.58438 7.77237 7.40463 5.83998C18.1366 -1.485 29.2733 -1.91929 40.8148 4.5371C41.2923 4.80424 41.7005 5.15257 42.0395 5.58212C42.3784 6.01166 42.6223 6.48971 42.7711 7.01626C42.9199 7.54282 42.9622 8.0778 42.8982 8.62121C42.8341 9.16462 42.6685 9.67509 42.4014 10.1526C41.8451 11.147 41.0187 11.7991 39.9222 12.1089C38.8257 12.4187 37.7803 12.2955 36.7859 11.7392L36.7859 11.7392ZM88.9173 9.756C82.4289 21.7812 72.4229 25.6552 58.8993 21.378C55.6344 20.3441 52.7233 18.6738 50.166 16.3672C49.3199 15.6041 48.8675 14.6535 48.8088 13.5156C48.7502 12.3777 49.1024 11.3857 49.8656 10.5396C50.2321 10.1333 50.6623 9.81258 51.1564 9.57744C51.6505 9.3423 52.1707 9.21065 52.7172 9.18248C53.2636 9.15431 53.7946 9.23178 54.3103 9.41487C54.8259 9.59796 55.2869 9.87275 55.6932 10.2392C56.6046 11.0613 57.5835 11.7592 58.63 12.3331C59.5023 12.8115 60.4216 13.2037 61.3879 13.5097C69.3595 16.0309 75.5015 14.437 79.8139 8.72792C80.4698 7.85958 81.0834 6.89604 81.6546 5.8373C82.1957 4.83453 83.0121 4.16991 84.1037 3.84344C85.1954 3.51696 86.2426 3.62425 87.2453 4.16531C87.7269 4.42514 88.1404 4.76722 88.4858 5.19154C88.8313 5.61587 89.0824 6.09015 89.2392 6.61438C89.396 7.13861 89.4465 7.67288 89.3907 8.21721C89.335 8.76153 89.1772 9.27446 88.9173 9.756L88.9173 9.756ZM89.0357 29.5814C87.9013 32.0513 85.9823 34.4432 83.2786 36.757C78.0172 41.2596 71.4723 43.5109 63.6439 43.5109C57.3 43.5109 50.1608 40.6894 42.2262 35.0464C40.7944 34.0282 39.4104 33.1226 38.074 32.3297C33.3862 29.5483 29.2849 28.153 25.7701 28.1437C17.8836 28.123 12.3423 30.4313 9.14618 35.0688C8.67056 35.7589 8.24686 36.5006 7.87511 37.2938C7.64292 37.7893 7.32476 38.2215 6.92064 38.5904C6.51652 38.9593 6.05719 39.2368 5.54266 39.423C5.02814 39.6091 4.49757 39.6897 3.95097 39.6648C3.40436 39.6399 2.88333 39.5114 2.38787 39.2792C1.35612 38.7957 0.646416 38.0182 0.258756 36.9467C-0.128905 35.8753 -0.0809793 34.8237 0.402533 33.7919C1.55862 31.325 3.49066 28.9362 6.19866 26.6254C11.4838 22.1155 18.0148 19.8708 25.7918 19.8913C32.0575 19.9078 39.1299 22.7178 47.009 28.3212C48.4669 29.3581 49.8767 30.2788 51.2384 31.0832C55.9501 33.8667 60.0853 35.2585 63.6439 35.2585C71.6053 35.2585 77.1581 32.9494 80.3023 28.3312C80.766 27.6501 81.1774 26.9188 81.5363 26.1372C81.7646 25.64 82.0795 25.2054 82.4807 24.8334C82.882 24.4614 83.3392 24.1803 83.8522 23.9902C84.3653 23.8001 84.8952 23.7153 85.442 23.736C85.9888 23.7567 86.5108 23.8813 87.0081 24.1096C88.0435 24.5852 88.7592 25.3571 89.1551 26.4256C89.551 27.494 89.5112 28.5459 89.0357 29.5814L89.0357 29.5814ZM38.0052 50.9359C37.0272 50.2097 36.0117 49.592 34.9587 49.0829C32.2021 47.75 29.1883 47.1611 25.9175 47.316C21.3749 47.5313 17.46 49.1346 14.1727 52.1262C13.1237 53.078 12.192 54.1474 11.3775 55.3344C10.7086 56.3091 10.1188 57.363 9.6081 58.4962C9.13991 59.535 8.37302 60.2561 7.30743 60.6596C6.24183 61.0631 5.18964 61.0307 4.15085 60.5625C3.652 60.3377 3.21516 60.026 2.84033 59.6273C2.4655 59.2287 2.1812 58.7736 1.98744 58.2618C1.79369 57.7501 1.70522 57.2208 1.72204 56.6739C1.73885 56.127 1.85968 55.6041 2.08451 55.1053C3.68778 51.548 5.86573 48.5205 8.61837 46.0228C13.3702 41.6984 19.0064 39.3818 25.527 39.0729C32.0099 38.7657 37.8093 40.5116 42.925 44.3104C43.8398 44.9896 44.3805 45.8929 44.547 47.0201C44.7135 48.1473 44.4572 49.1683 43.7779 50.0831C43.4517 50.5224 43.0538 50.8825 42.5843 51.1635C42.1148 51.4446 41.6094 51.6251 41.0681 51.705C40.5268 51.785 39.9909 51.7583 39.4602 51.6251C38.9295 51.4918 38.4445 51.2621 38.0052 50.9359L38.0052 50.9359ZM90.4203 51.3505C84.5445 60.479 75.022 64.361 61.8527 62.9967C58.8192 62.7032 55.885 61.9845 53.0503 60.8407C51.9937 60.4143 51.2425 59.6768 50.7968 58.6281C50.3512 57.5795 50.3415 56.5268 50.7679 55.4702C51.1942 54.4135 51.9317 53.6624 52.9804 53.2167C54.0291 52.771 55.0817 52.7614 56.1383 53.1877C58.2357 54.0341 60.424 54.5675 62.7031 54.7882C62.9476 54.8135 63.1904 54.8366 63.4315 54.8574C70.5161 55.4687 76.0523 54.1175 80.0402 50.8038C81.3557 49.7107 82.5026 48.4041 83.4811 46.8839C84.0979 45.9258 84.963 45.326 86.0766 45.0846C87.1901 44.8432 88.2259 45.0309 89.184 45.6476C89.6441 45.9437 90.03 46.3167 90.3418 46.7663C90.6535 47.216 90.8674 47.7082 90.9833 48.243C91.0992 48.7777 91.1084 49.3143 91.0109 49.8527C90.9133 50.3911 90.7165 50.8904 90.4203 51.3505L90.4203 51.3505Z" id="矢量图" fill="#00BEEE" fill-rule="evenodd" stroke="none" />
</svg>