<?xml version="1.0" encoding="utf-8"?>
<svg width="45px" height="45px" viewBox="0 0 45 45" version="1.1" xmlns:xlink="http://www.w3.org/1999/xlink" xmlns="http://www.w3.org/2000/svg">
  <defs>
    <path d="M45 0L45 0L45 45L0 45L0 0L45 0Z" id="path_1" />
    <clipPath id="clip_1">
      <use xlink:href="#path_1" />
    </clipPath>
  </defs>
  <g id="icon" clip-path="url(#clip_1)">
    <path d="M45 0L45 0L45 45L0 45L0 0L45 0Z" id="icon" fill="#FFFFFF" fill-opacity="0" stroke="none" />
    <g id="Group-5" transform="translate(4.2998047 7.3500977)">
      <g id="编组-5">
        <path d="M6.69702 8.81875L19.199 0.467135C19.5044 0.263115 19.8372 0.125297 20.1975 0.0536822C20.5577 -0.0179325 20.9179 -0.0178939 21.2782 0.0537987C21.6384 0.125491 21.9712 0.26338 22.2765 0.467465C22.5819 0.671551 22.8366 0.926299 23.0406 1.23171C23.4655 1.86769 23.6032 2.56074 23.4539 3.31086C23.3047 4.06098 22.912 4.64846 22.276 5.07331L9.77405 13.4249C9.46864 13.6289 9.13582 13.7668 8.77558 13.8384C8.41535 13.91 8.05512 13.91 7.6949 13.8383C7.33468 13.7666 7.00188 13.6287 6.69652 13.4246C6.39115 13.2205 6.13646 12.9658 5.93244 12.6604C5.50759 12.0244 5.36981 11.3313 5.51911 10.5812C5.6684 9.83108 6.06104 9.2436 6.69702 8.81875L6.69702 8.81875Z" id="矢量图" fill="#30C3FF" fill-rule="evenodd" stroke="none" />
        <path d="M7.92486 8.54652L27.5365 8.62565C27.9038 8.62714 28.2568 8.69884 28.5956 8.84076C28.9343 8.98268 29.233 9.18402 29.4917 9.44478C29.7503 9.70553 29.9493 10.0059 30.0884 10.3457C30.2276 10.6856 30.2965 11.0392 30.295 11.4065C30.2919 12.1713 30.0189 12.8231 29.4759 13.3617C28.9329 13.9003 28.279 14.1681 27.5141 14.165L7.90251 14.0859C7.13769 14.0828 6.48596 13.8097 5.94733 13.2668C5.40869 12.7238 5.14092 12.0698 5.14401 11.305C5.14709 10.5402 5.42013 9.88847 5.96313 9.34984C6.50613 8.81121 7.16004 8.54343 7.92486 8.54652L7.92486 8.54652Z" id="矢量图-2" fill="#197BBC" fill-rule="evenodd" stroke="none" />
        <path d="M28.9852 13.7419L7.89664 27.0791C7.25023 27.4879 6.55395 27.6083 5.8078 27.4403C5.06165 27.2723 4.48417 26.8651 4.07536 26.2187C3.66655 25.5723 3.54614 24.876 3.71415 24.1299C3.88215 23.3837 4.28936 22.8062 4.93576 22.3974L26.0243 9.06024C26.6707 8.65143 27.367 8.53102 28.1131 8.69903C28.8593 8.86703 29.4368 9.27424 29.8456 9.92064C30.2544 10.567 30.3748 11.2633 30.2068 12.0095C30.0388 12.7556 29.6316 13.3331 28.9852 13.7419L28.9852 13.7419Z" id="矢量图-3" fill="#30C3FF" fill-rule="evenodd" stroke="none" />
        <path d="M30.7418 29.4984C30.5909 29.3549 30.3376 29.1503 29.9819 28.8847C29.3239 28.3935 28.6055 27.9327 27.8265 27.5023C27.6925 27.4283 27.5568 27.3552 27.4193 27.2829C24.3894 25.6919 21.1316 24.8558 17.6458 24.7747C14.2269 24.6951 11.0295 25.4779 8.05372 27.1232C7.80491 27.2608 7.56199 27.4021 7.32497 27.5472C6.68021 27.9418 6.079 28.3641 5.52134 28.8142C5.16868 29.0989 4.91765 29.319 4.76823 29.4748C4.2387 30.0266 3.5916 30.3105 2.82693 30.3263C2.06226 30.3421 1.40399 30.0852 0.852117 29.5557C0.587098 29.3014 0.380822 29.006 0.23329 28.6697C0.0857568 28.3333 0.00819768 27.9816 0.000611596 27.6144C-0.00697509 27.2472 0.0559897 26.8925 0.189505 26.5503C0.323021 26.2082 0.516923 25.9046 0.771214 25.6395C1.08319 25.3144 1.50686 24.9358 2.0422 24.5037C3.05554 23.6858 4.16594 22.9431 5.37341 22.2755C9.22338 20.1468 13.3572 19.1339 17.7747 19.2367C22.1255 19.338 26.1988 20.3853 29.9947 22.3786C31.1904 23.0065 32.2908 23.6956 33.2957 24.4459C33.828 24.8433 34.2494 25.1896 34.5599 25.485C35.114 26.0122 35.4006 26.658 35.4197 27.4226C35.4388 28.1872 35.1847 28.8466 34.6576 29.4007C34.4044 29.6668 34.11 29.8744 33.7743 30.0234C33.4385 30.1723 33.0871 30.2514 32.7199 30.2606C32.3528 30.2697 31.9978 30.2083 31.6551 30.0762C31.3124 29.9442 31.0079 29.7516 30.7418 29.4984L30.7418 29.4984Z" id="矢量图-4" fill="#197BBC" fill-rule="evenodd" stroke="none" />
      </g>
    </g>
  </g>
</svg>