<?xml version="1.0" encoding="utf-8"?>
<svg width="631.8px" height="389.2px" viewBox="0 0 631.8 389.2" version="1.1" xmlns:xlink="http://www.w3.org/1999/xlink" xmlns="http://www.w3.org/2000/svg">
  <path d="M22 7.79999L2 6.20001L2 0L62.8 0C108.6 0 136 26.8 136 73.2C136 118.4 107.2 146.4 59.8 146.4L2 146.4L2 140.2L22 138.4C22.4 118.6 22.4 98.2 22.4 74.8L22.4 69C22.4 48 22.4 27.8 22 7.79999L22 7.79999ZM43.2 74.8C43.2 98.6 43.2 119.2 43.4 139.6L58.4 139.6C95 139.6 114.2 114.6 114.2 73.2C114.2 30 94.8 7 60.2 7L43.4 7C43.2 27.2 43.2 47.6 43.2 69L43.2 74.8L43.2 74.8ZM208.5 51.4C198.5 56.8 191.3 66.4 185.9 82.6L185.9 100.4L186.3 138.8L205.3 140.8L205.3 146.4L150.1 146.4L150.1 140.8L166.1 139L166.5 100.4L166.5 87.4C166.5 73.8 166.3 64.4 165.9 54.6L148.9 53.4L148.9 48.4L182.1 39.6L184.7 41.2L185.9 68.8C192.5 50.4 205.7 39 219.1 39C227.1 39 233.7 42.4 235.5 49.4C235.5 56.8 232.1 61.6 224.3 61.6C218.9 61.6 215.1 58.6 210.3 53.2L208.5 51.4L208.5 51.4ZM331.8 126.6C323.2 141 309.2 149.4 290.8 149.4C260.4 149.4 238.6 130.8 238.6 94.4C238.6 60 262.2 39 289.2 39C316.2 39 331.6 57.4 331.6 81.4C331.6 86.2 331.2 90.2 330.4 93.4L259 93.4C259.6 124.8 275.2 138.6 296.6 138.6C310.6 138.6 320.6 133.4 328.4 124L331.8 126.6L331.8 126.6ZM445.3 138C440.9 145.8 434.5 149.2 425.7 149.2C414.3 149.2 408.3 142.2 406.7 130.4C395.1 143 386.5 149.4 371.7 149.4C355.7 149.4 343.7 140 343.7 123.2C343.7 107.2 353.3 97 380.9 89C388.7 86.8 397.9 84.4 406.3 82.2L406.3 73.4C406.3 51.4 399.7 45.4 383.9 45.4C379.3 45.4 374.7 46 369.7 47.8L366.9 62.4C365.9 70.8 361.9 73.8 356.5 73.8C351.3 73.8 347.7 71 346.7 66C350.1 49.2 365.5 39 389.7 39C413.9 39 425.1 49.8 425.1 75.4L425.1 125.6C425.1 137.2 427.9 140.6 433.1 140.6C436.3 140.6 438.7 139.2 442.1 135.2L445.3 138L445.3 138ZM631.8 146.4L581.6 146.4L581.6 140.8L597.2 139.2L597.6 100.4L597.6 76.8C597.6 57 591.4 50.6 580.2 50.6C571.4 50.6 561.4 55 550.4 66.6C550.8 69.6 551 73 551 76.8L551 100.4L551.4 139.2L566 140.8L566 146.4L515.8 146.4L515.8 140.8L531.6 139.2L532 100.4L532 76.8C532 57.8 525.8 50.6 515.2 50.6C506.2 50.6 496.4 55.6 485.2 67.2L485.2 100.4L485.6 139.2L500.2 140.8L500.2 146.4L449.4 146.4L449.4 140.8L465.4 139.2L465.8 100.4L465.8 87.2C465.8 73.8 465.6 64.4 465.2 54.4L448.2 53.4L448.2 48.4L481.4 39.6L484 41.2L485 60.2C496.8 46.2 509 39 522.8 39C536.4 39 545.6 45.4 549.2 60.2C561.2 45.4 573.8 39 587.6 39C606.6 39 616.8 50.2 616.8 77L616.8 100.4L617.2 139.2L631.8 140.8L631.8 146.4L631.8 146.4ZM288.6 45.6C273 45.6 260.4 60 259.2 87L303.4 87C310.8 87 313 83.2 313 74.4C313 57.2 303.8 45.6 288.6 45.6L288.6 45.6ZM380.3 138.8C387.5 138.8 394.3 135.4 406.3 124.2L406.3 87.4C398.7 89.4 391.3 91.6 385.3 93.8C369.1 100 362.5 108.6 362.5 120.4C362.5 132.8 369.5 138.8 380.3 138.8L380.3 138.8ZM185.9 189.8C185.9 199.6 178.3 206.4 168.7 206.4C159.3 206.4 151.5 199.6 151.5 189.8C151.5 180.6 159.3 173.6 168.7 173.6C178.3 173.6 185.9 180.6 185.9 189.8L185.9 189.8ZM18 196.4L0 194.8L0 188L70.4 188C108.8 188 122.8 202.8 122.8 223C122.8 238.2 112.8 252 80.8 257.6C117 261.2 131.6 275 131.6 295.8C131.6 315.4 117.4 337.4 63.4 337.4L0 337.4L0 330.6L18 328.8C18.4 307.8 18.4 286.2 18.4 264.6L18.4 257.4C18.4 237 18.4 216.8 18 196.4L18 196.4ZM61.6 195.6L52.4 195.6C51.8 215.2 51.8 235 51.8 255.6L59.6 255.6C80 255.6 90.2 244.2 90.2 224C90.2 206 81.8 195.6 61.6 195.6L61.6 195.6ZM301.4 261.8C301.4 282.2 286.4 298 255 298C245.6 298 237.6 296.6 231.2 294C228.6 298.2 227.4 301.6 227.4 306C227.4 312.4 231.8 315.8 242.4 315.8L271.6 315.8C304.6 315.8 316.6 328.8 316.6 346.4C316.6 368.2 292.6 389.2 251 389.2C214 389.2 204 377.2 204 363C204 353.6 210.8 344.8 225 338.8C215.2 335.2 209.8 328.4 209.8 319.2C209.8 310.2 214 301.4 227 292.2C214.6 285.8 208.6 274.8 208.6 261.8C208.6 240.4 223.6 224.8 255.2 224.8C270.8 224.8 282.2 228.6 289.6 234.8L315 224.8L318.6 227L318.6 242.6L294.6 240.2C299 246 301.4 253.4 301.4 261.8L301.4 261.8ZM198.3 337.4L139.9 337.4L139.9 331.2L152.9 330L153.3 289.8L153.3 273.8C153.3 260.6 153.1 252.8 152.7 243.4L137.9 241.8L137.9 237L183.9 225L186.5 226.8L185.7 259L185.7 289.8C185.7 301 185.9 318.4 186.1 330L198.3 331.2L198.3 337.4L198.3 337.4ZM237.6 261.8C237.6 280.2 243.4 291.6 255 291.6C266.4 291.6 272.6 280.2 272.6 261.8C272.6 242.2 266 231.2 255.2 231.2C244 231.2 237.6 242.4 237.6 261.8L237.6 261.8ZM61.2 262.8L51.8 262.8C51.8 286.6 51.8 308.6 52.4 330L62.4 330C83.8 330 96.8 318.4 96.8 296.4C96.8 273.2 85.4 262.8 61.2 262.8L61.2 262.8ZM251 342.4C240.2 342.4 234.6 342.4 229.2 341C225 346.4 222.6 350.6 222.6 357.8C222.6 372.6 233.2 380.4 250.8 380.4C277.8 380.4 291 371.4 291 356.4C291 350 286.6 342.4 273.2 342.4L251 342.4L251 342.4Z" id="Vector" fill="#221942" style="mix-blend-mode: hard-light;" fill-rule="evenodd" stroke="none" />
</svg>